<?xml version="1.0" encoding="UTF-8"?>
<svg id="Layer_1" data-name="Layer 1" xmlns="http://www.w3.org/2000/svg" xmlns:xlink="http://www.w3.org/1999/xlink" viewBox="0 0 623.39 283.58">
  <defs>
    <style>
      .cls-1 {
        fill: #bf995e;
      }

      .cls-2 {
        fill: #bf995e;
      }

      .cls-3 {
        fill: #bf995e;
      }
    </style>
    <linearGradient id="linear-gradient" x1="75.51" y1="114.41" x2="137.6" y2="175.76" gradientUnits="userSpaceOnUse">
      <stop offset="0" stop-color="#eac687"/>
      <stop offset="1" stop-color="#9d753d"/>
    </linearGradient>
    <linearGradient id="linear-gradient-2" x1="89.16" y1="161.26" x2="117.36" y2="196.98" xlink:href="#linear-gradient"/>
  </defs>
  <g>
    <polygon class="cls-3" points="159.63 166.02 128.48 135.84 102.31 135.82 102.32 120.43 150 120.44 150.08 140.78 159.64 149.89 159.64 110.66 115.88 110.68 115.82 60.73 72.38 94.36 72.38 204.83 91.41 204.82 91.43 195.2 81.87 195.13 81.87 98.96 106.46 80.01 106.49 110.68 93.01 110.69 93.01 145.5 124.42 145.52 150.06 170.36 150.03 192.49 146.93 195.19 118.3 195.22 118.32 204.84 151.04 204.83 159.66 197.32 159.63 166.02"/>
    <rect class="cls-1" x="99.21" y="155.18" width="9.5" height="49.65"/>
  </g>
  <g>
    <rect class="cls-2" x="197.1" y="192.34" width="45.14" height="3.53"/>
    <rect class="cls-2" x="498.05" y="192.33" width="45.16" height="3.54"/>
    <g>
      <path d="M197.66,160.75v-44.29h21.9c4.72,0,8.76.63,12.13,1.9s5.97,3.08,7.8,5.44,2.74,5.17,2.74,8.41-.91,6.05-2.74,8.41c-1.83,2.36-4.42,4.18-7.8,5.44s-7.42,1.9-12.13,1.9h-16.43l4.41-3.86v16.64h-9.89ZM207.55,145l-4.41-3.99h15.97c4.36,0,7.64-.77,9.85-2.31,2.21-1.54,3.31-3.7,3.31-6.48s-1.1-5-3.31-6.52c-2.21-1.52-5.49-2.28-9.85-2.28h-15.97l4.41-4.05v25.62Z"/>
      <path d="M278.74,160.75v-44.29h21.9c4.71,0,8.76.63,12.13,1.9,3.37,1.27,5.97,3.08,7.8,5.44s2.74,5.17,2.74,8.41-.91,6.04-2.74,8.38-4.42,4.13-7.8,5.38c-3.37,1.24-7.42,1.87-12.13,1.87h-16.43l4.41-3.73v16.64h-9.89ZM288.62,145l-4.41-3.92h15.97c4.36,0,7.64-.78,9.85-2.34,2.21-1.56,3.31-3.73,3.31-6.52s-1.1-5-3.31-6.52c-2.21-1.52-5.49-2.28-9.85-2.28h-15.97l4.41-4.05v25.62ZM313.57,160.75l-13.46-16.07h10.57l13.54,16.07h-10.65Z"/>
      <path d="M360.95,160.75v-44.29h9.89v44.29h-9.89Z"/>
      <path d="M411.83,160.75v-44.29h8.14l23.27,32.33h-4.26l22.89-32.33h8.14l.08,44.29h-9.35l-.08-32.08h1.98l-19.47,27.01h-4.41l-19.77-27.01h2.28v32.08h-9.43Z"/>
      <path d="M520.97,153.85h30.04v6.9h-39.93v-44.29h38.87v6.9h-28.98v30.49ZM520.21,134.88h26.47v6.77h-26.47v-6.77Z"/>
    </g>
    <g>
      <path class="cls-2" d="M279.62,204.84c-1.86,0-3.63-.25-5.33-.75-1.7-.5-3.05-1.15-4.04-1.94l1.53-3.23c.95.7,2.13,1.29,3.53,1.76,1.4.47,2.84.7,4.31.7,1.25,0,2.25-.13,3.02-.38.77-.26,1.34-.6,1.7-1.04s.54-.93.54-1.49c0-.68-.26-1.23-.78-1.65-.52-.42-1.19-.75-2.02-.99-.83-.24-1.74-.47-2.75-.69-1.01-.21-2.02-.46-3.02-.75s-1.92-.66-2.75-1.12c-.83-.46-1.5-1.07-2.02-1.84-.52-.77-.78-1.75-.78-2.94s.35-2.33,1.04-3.34c.69-1.01,1.74-1.82,3.16-2.43,1.42-.61,3.21-.91,5.38-.91,1.43,0,2.84.17,4.25.51,1.4.34,2.63.83,3.67,1.47l-1.39,3.23c-1.06-.6-2.16-1.04-3.29-1.33-1.13-.29-2.22-.43-3.26-.43-1.22,0-2.21.14-2.97.42s-1.31.64-1.67,1.09c-.35.45-.53.96-.53,1.54,0,.68.25,1.23.76,1.65s1.18.74,2,.98c.83.23,1.75.46,2.77.69,1.02.22,2.03.48,3.04.75,1.01.28,1.92.64,2.75,1.09.83.45,1.5,1.06,2,1.82.51.77.76,1.74.76,2.91s-.35,2.3-1.04,3.31c-.69,1.01-1.75,1.82-3.18,2.43-1.43.61-3.23.91-5.4.91Z"/>
      <path class="cls-2" d="M322.49,204.52v-22.4h4.42v22.4h-4.42Z"/>
      <path class="cls-2" d="M367.03,204.52v-18.88h-7.88v-3.52h20.18v3.52h-7.88v18.88h-4.42Z"/>
      <path class="cls-2" d="M415.95,201.03h13.42v3.49h-17.84v-22.4h17.36v3.49h-12.94v15.42ZM415.61,191.43h11.82v3.42h-11.82v-3.42Z"/>
      <path class="cls-2" d="M470.55,204.84c-1.86,0-3.63-.25-5.33-.75-1.7-.5-3.05-1.15-4.04-1.94l1.53-3.23c.95.7,2.13,1.29,3.53,1.76,1.4.47,2.84.7,4.31.7,1.25,0,2.25-.13,3.02-.38.77-.26,1.34-.6,1.7-1.04s.54-.93.54-1.49c0-.68-.26-1.23-.78-1.65-.52-.42-1.19-.75-2.02-.99-.83-.24-1.74-.47-2.75-.69-1.01-.21-2.02-.46-3.02-.75s-1.92-.66-2.75-1.12c-.83-.46-1.5-1.07-2.02-1.84-.52-.77-.78-1.75-.78-2.94s.35-2.33,1.04-3.34c.69-1.01,1.74-1.82,3.16-2.43,1.42-.61,3.21-.91,5.38-.91,1.43,0,2.84.17,4.25.51,1.4.34,2.63.83,3.67,1.47l-1.39,3.23c-1.06-.6-2.16-1.04-3.29-1.33-1.13-.29-2.22-.43-3.26-.43-1.22,0-2.21.14-2.97.42s-1.31.64-1.67,1.09c-.35.45-.53.96-.53,1.54,0,.68.25,1.23.76,1.65s1.18.74,2,.98c.83.23,1.75.46,2.77.69,1.02.22,2.03.48,3.04.75,1.01.28,1.92.64,2.75,1.09.83.45,1.5,1.06,2,1.82.51.77.76,1.74.76,2.91s-.35,2.3-1.04,3.31c-.69,1.01-1.75,1.82-3.18,2.43-1.43.61-3.23.91-5.4.91Z"/>
    </g>
  </g>
</svg>